<?xml version="1.0" encoding="UTF-8"?>
<svg xmlns="http://www.w3.org/2000/svg" xmlns:xlink="http://www.w3.org/1999/xlink" width="600pt" height="600pt" viewBox="0 0 600 600" version="1.1">
<g id="surface1">
<rect x="0" y="0" width="600" height="600" style="fill:rgb(56.596375%,78.662109%,93.382263%);fill-opacity:1;stroke:none;"/>
<path style=" stroke:none;fill-rule:nonzero;fill:rgb(100%,100%,100%);fill-opacity:1;" d="M 130.375 330.84375 C 130.609375 328.277344 132.476562 326.179688 135.039062 326.179688 L 158.371094 326.179688 C 160.9375 326.179688 163.039062 328.277344 163.039062 330.84375 C 163.039062 362.105469 139.707031 384.273438 107.511719 384.273438 C 75.3125 384.273438 55.25 360.707031 51.984375 332.710938 C 49.648438 313.113281 49.648438 286.980469 51.984375 267.382812 C 55.25 239.386719 75.3125 215.820312 107.511719 215.820312 C 139.707031 215.820312 163.039062 237.984375 163.039062 269.25 C 163.039062 271.816406 160.9375 273.914062 158.371094 273.914062 L 135.039062 273.914062 C 132.476562 273.914062 130.609375 271.816406 130.375 269.25 C 129.441406 257.117188 120.808594 248.71875 107.511719 248.71875 C 93.28125 248.71875 86.046875 257.117188 84.878906 267.382812 C 82.546875 286.980469 82.546875 313.113281 84.878906 332.710938 C 86.046875 342.976562 93.28125 351.375 107.511719 351.375 C 120.808594 351.375 129.441406 342.976562 130.375 330.84375 "/>
<path style=" stroke:none;fill-rule:nonzero;fill:rgb(100%,100%,100%);fill-opacity:1;" d="M 233.03125 314.511719 C 203.867188 307.980469 180.769531 295.148438 180.769531 265.050781 C 180.769531 237.519531 203.402344 215.820312 234.199219 215.820312 C 265.460938 215.820312 287.859375 237.519531 287.859375 265.050781 L 287.859375 268.550781 C 287.859375 271.117188 285.761719 273.214844 283.195312 273.214844 L 259.628906 273.214844 C 257.0625 273.214844 254.964844 271.117188 254.964844 268.550781 L 254.964844 265.050781 C 254.964844 255.71875 247.496094 247.550781 234.199219 247.550781 C 221.132812 247.550781 213.902344 254.550781 213.902344 263.882812 C 213.902344 272.75 222.53125 278.347656 234.664062 280.683594 C 267.09375 287.214844 291.125 300.746094 291.125 333.175781 C 291.125 363.507812 267.328125 384.273438 234.199219 384.273438 C 202 384.273438 178.671875 361.640625 178.671875 333.175781 L 178.671875 326.179688 C 178.671875 323.609375 180.769531 321.511719 183.335938 321.511719 L 206.902344 321.511719 C 209.46875 321.511719 211.566406 323.609375 211.566406 326.179688 L 211.566406 333.175781 C 211.566406 343.910156 219.734375 352.308594 234.199219 352.308594 C 248.199219 352.308594 257.296875 344.144531 257.296875 333.175781 C 257.296875 323.144531 250.53125 318.480469 233.03125 314.511719 "/>
<path style=" stroke:none;fill-rule:nonzero;fill:rgb(100%,100%,100%);fill-opacity:1;" d="M 368.820312 352.773438 C 369.050781 352.539062 369.75 352.074219 369.050781 351.375 L 341.519531 318.710938 C 340.820312 318.011719 340.355469 318.480469 340.121094 318.710938 C 336.15625 322.445312 333.820312 327.34375 333.820312 333.644531 C 333.820312 345.542969 346.652344 356.273438 358.320312 356.273438 C 362.285156 356.273438 365.316406 355.105469 368.820312 352.773438 Z M 388.648438 307.046875 C 388.648438 304.480469 390.75 302.378906 393.316406 302.378906 L 409.179688 302.378906 C 411.746094 302.378906 413.847656 304.480469 413.847656 307.046875 C 413.847656 335.042969 410.113281 345.074219 407.78125 349.042969 C 407.082031 350.210938 407.082031 350.675781 408.015625 351.84375 L 425.980469 373.074219 C 428.546875 376.105469 426.910156 381.703125 421.78125 381.703125 L 403.347656 381.703125 C 399.847656 381.703125 399.148438 380.304688 398.214844 379.371094 L 393.082031 374.007812 C 390.984375 371.90625 389.582031 373.304688 388.648438 374.007812 C 379.550781 381.238281 367.886719 384.273438 355.519531 384.273438 C 327.054688 384.273438 301.859375 362.339844 301.859375 333.644531 C 301.859375 320.578125 309.089844 306.578125 319.589844 298.648438 C 321.457031 297.246094 321.222656 295.378906 319.824219 293.515625 C 313.523438 285.816406 309.089844 273.683594 309.089844 263.417969 C 309.089844 237.519531 330.554688 218.390625 356.6875 218.390625 C 380.25 218.390625 400.78125 237.054688 400.78125 261.316406 C 400.78125 267.382812 397.746094 268.316406 393.78125 268.316406 L 376.515625 268.316406 C 372.550781 268.316406 369.75 266.449219 369.285156 261.550781 C 368.585938 254.316406 363.683594 248.953125 355.753906 248.953125 C 345.953125 248.953125 340.121094 254.550781 340.121094 263.417969 C 340.121094 272.050781 347.585938 282.316406 350.386719 285.582031 L 385.148438 326.878906 C 385.851562 327.574219 386.785156 327.109375 387.25 326.410156 C 388.414062 324.546875 388.648438 318.710938 388.648438 307.046875 "/>
<path style=" stroke:none;fill-rule:nonzero;fill:rgb(100%,100%,100%);fill-opacity:1;" d="M 489.671875 314.511719 C 460.507812 307.980469 437.410156 295.148438 437.410156 265.050781 C 437.410156 237.519531 460.042969 215.820312 490.839844 215.820312 C 522.101562 215.820312 544.5 237.519531 544.5 265.050781 L 544.5 268.550781 C 544.5 271.117188 542.402344 273.214844 539.835938 273.214844 L 516.269531 273.214844 C 513.703125 273.214844 511.605469 271.117188 511.605469 268.550781 L 511.605469 265.050781 C 511.605469 255.71875 504.136719 247.550781 490.839844 247.550781 C 477.773438 247.550781 470.539062 254.550781 470.539062 263.882812 C 470.539062 272.75 479.171875 278.347656 491.304688 280.683594 C 523.734375 287.214844 547.765625 300.746094 547.765625 333.175781 C 547.765625 363.507812 523.96875 384.273438 490.839844 384.273438 C 458.640625 384.273438 435.3125 361.640625 435.3125 333.175781 L 435.3125 326.179688 C 435.3125 323.609375 437.410156 321.511719 439.976562 321.511719 L 463.542969 321.511719 C 466.109375 321.511719 468.207031 323.609375 468.207031 326.179688 L 468.207031 333.175781 C 468.207031 343.910156 476.375 352.308594 490.839844 352.308594 C 504.839844 352.308594 513.9375 344.144531 513.9375 333.175781 C 513.9375 323.144531 507.171875 318.480469 489.671875 314.511719 "/>
</g>
</svg>
